<?xml version="1.0" encoding="UTF-8"?>
<svg xmlns="http://www.w3.org/2000/svg" xmlns:xlink="http://www.w3.org/1999/xlink" version="1.1" viewBox="0 0 553 324">
  <defs>
    <style>
      .cls-1 {
        fill: none;
      }

      .cls-2 {
        fill: url(#linear-gradient-8);
      }

      .cls-3 {
        fill: url(#linear-gradient-7);
      }

      .cls-4 {
        fill: url(#linear-gradient-5);
      }

      .cls-5 {
        fill: url(#linear-gradient-6);
      }

      .cls-6 {
        fill: url(#linear-gradient-9);
      }

      .cls-7 {
        fill: url(#linear-gradient-4);
      }

      .cls-8 {
        fill: url(#linear-gradient-3);
      }

      .cls-9 {
        fill: url(#linear-gradient-2);
      }

      .cls-10 {
        fill: url(#linear-gradient);
      }

      .cls-11 {
        fill: #fff;
      }

      .cls-12 {
        fill: url(#linear-gradient-10);
      }

      .cls-13 {
        fill: url(#linear-gradient-11);
      }

      .cls-14 {
        fill: url(#linear-gradient-12);
      }

      .cls-15 {
        fill: url(#linear-gradient-13);
      }

      .cls-16 {
        fill: url(#linear-gradient-14);
      }

      .cls-17 {
        fill: url(#linear-gradient-15);
      }

      .cls-18 {
        fill: url(#linear-gradient-16);
      }

      .cls-19 {
        clip-path: url(#clippath);
      }
    </style>
    <clipPath id="clippath">
      <rect class="cls-1" width="553" height="324"/>
    </clipPath>
    <linearGradient id="linear-gradient" x1="276.6" y1="163.9" x2="553" y2="163.9" gradientTransform="translate(0 326) scale(1 -1)" gradientUnits="userSpaceOnUse">
      <stop offset="0" stop-color="#ff6107"/>
      <stop offset="1" stop-color="#d62c3b"/>
    </linearGradient>
    <linearGradient id="linear-gradient-2" x1="280.3" y1="164" x2="549.3" y2="164" gradientTransform="translate(0 326) scale(1 -1)" gradientUnits="userSpaceOnUse">
      <stop offset="0" stop-color="#ff6107"/>
      <stop offset="1" stop-color="#d62c3b"/>
    </linearGradient>
    <linearGradient id="linear-gradient-3" x1="361.3" y1="320.4" x2="380.2" y2="149.5" gradientTransform="translate(0 326) scale(1 -1)" gradientUnits="userSpaceOnUse">
      <stop offset="0" stop-color="#ff6107"/>
      <stop offset="1" stop-color="#d62c3b"/>
    </linearGradient>
    <linearGradient id="linear-gradient-4" x1="464.7" y1="228.1" x2="360.6" y2="199.1" gradientTransform="translate(0 326) scale(1 -1)" gradientUnits="userSpaceOnUse">
      <stop offset="0" stop-color="#ff6107"/>
      <stop offset="1" stop-color="#d62c3b"/>
    </linearGradient>
    <linearGradient id="linear-gradient-5" x1="381.5" y1="165.5" x2="580.5" y2="282.1" gradientTransform="translate(0 326) scale(1 -1)" gradientUnits="userSpaceOnUse">
      <stop offset="0" stop-color="#ff6107"/>
      <stop offset="1" stop-color="#d62c3b"/>
    </linearGradient>
    <linearGradient id="linear-gradient-6" x1="337.3" y1="147.8" x2="478.7" y2="224.1" gradientTransform="translate(0 326) scale(1 -1)" gradientUnits="userSpaceOnUse">
      <stop offset="0" stop-color="#ff6107"/>
      <stop offset="1" stop-color="#d62c3b"/>
    </linearGradient>
    <linearGradient id="linear-gradient-7" x1="473.5" y1="276.4" x2="483.2" y2="66.6" gradientTransform="translate(0 326) scale(1 -1)" gradientUnits="userSpaceOnUse">
      <stop offset="0" stop-color="#ff6107"/>
      <stop offset="1" stop-color="#d62c3b"/>
    </linearGradient>
    <linearGradient id="linear-gradient-8" x1="450.3" y1="164" x2="507.1" y2="164" gradientTransform="translate(0 326) scale(1 -1)" gradientUnits="userSpaceOnUse">
      <stop offset="0" stop-color="#ff6107"/>
      <stop offset="1" stop-color="#d62c3b"/>
    </linearGradient>
    <linearGradient id="linear-gradient-9" x1="291.9" y1="-228.3" x2="568.3" y2="-228.3" xlink:href="#linear-gradient"/>
    <linearGradient id="linear-gradient-10" x1="295.6" y1="-228.2" x2="564.6" y2="-228.2" xlink:href="#linear-gradient-2"/>
    <linearGradient id="linear-gradient-11" x1="376.7" y1="-71.8" x2="395.5" y2="-242.7" xlink:href="#linear-gradient-3"/>
    <linearGradient id="linear-gradient-12" x1="480" y1="-164.1" x2="375.9" y2="-193.1" xlink:href="#linear-gradient-4"/>
    <linearGradient id="linear-gradient-13" x1="396.8" y1="-226.7" x2="595.8" y2="-110.1" xlink:href="#linear-gradient-5"/>
    <linearGradient id="linear-gradient-14" x1="352.6" y1="-244.3" x2="494" y2="-168.1" xlink:href="#linear-gradient-6"/>
    <linearGradient id="linear-gradient-15" x1="488.8" y1="-115.8" x2="498.6" y2="-325.6" xlink:href="#linear-gradient-7"/>
    <linearGradient id="linear-gradient-16" x1="465.6" y1="-228.2" x2="522.4" y2="-228.2" xlink:href="#linear-gradient-8"/>
  </defs>
  <!-- Generator: Adobe Illustrator 28.6.0, SVG Export Plug-In . SVG Version: 1.2.0 Build 709)  -->
  <g>
    <g id="Layer_1">
      <rect class="cls-11" x="220" y="339" width="418" height="391"/>
      <g class="cls-19">
        <g>
          <path d="M0,177.4l7.7-17.3c6.7,3.9,15.5,6.4,23.3,6.4s9.2-1.4,9.2-3.8c0-8.9-39-1.7-39-28s11-23.8,32.9-23.8,19.3,2,26.6,6.1l-7.2,17.2c-7-3.5-13.5-5.2-19.7-5.2s-9.2,2-9.2,4.4c0,8.5,39,1.4,39,27.4s-11,23.8-32.9,23.8S7.1,181.7,0,177.4h0Z"/>
          <path d="M136.9,139.1c0,16.3-12.5,26.6-32.2,26.6h-10.2v17.3h-23.8v-70.5h34c19.7,0,32.2,10.3,32.2,26.6ZM112.9,139.1c0-5.1-3.1-8.3-9.7-8.3h-8.7v16.5h8.7c6.6,0,9.7-3.1,9.7-8.3h0Z"/>
          <path d="M189.2,170.7h-26.8l-4.7,12.3h-24.2l30.9-70.5h23.4l30.9,70.5h-24.6l-4.7-12.3h0ZM182.6,153.6l-6.9-17.7-6.9,17.7h13.7,0Z"/>
          <path d="M252.6,165.3h-6.5v17.7h-23.8v-70.5h34c19.7,0,32.2,10.3,32.2,26.6s-4.8,17.8-13.3,22.2l14.8,21.8h-25.4l-12-17.7h0ZM254.8,130.8h-8.7v16.5h8.7c6.6,0,9.7-3.1,9.7-8.3s-3.1-8.3-9.7-8.3h0Z"/>
          <path d="M326.2,159.7l-5.3,5.9v17.4h-23.4v-70.5h23.4v25.6l23.2-25.6h25.9l-28.2,31,29.7,39.5h-27.5l-17.6-23.4Z"/>
          <path class="cls-10" d="M463.2,324c-.6,0-1.2,0-1.8-.1-4.4-.5-8.3-2.6-11.1-6.1-2.8-3.4-4-7.7-3.6-12.1l14.5-135.8c-1.9,5.4-4.3,10.6-7.1,15.4-16.6,28.8-48.5,49-83.2,52.7-3.6.4-7.2.6-10.8.6-24.5,0-45.5-9.3-57.7-25.6-2.6-3.5-3.8-7.9-3.1-12.2.6-4.4,2.9-8.2,6.5-10.9,2.9-2.2,6.3-3.3,9.9-3.3,5.2,0,10.1,2.5,13.2,6.6,8.4,11.2,24.9,12.4,31.7,12.4s4.6-.1,6.8-.4c24.4-2.6,46.7-16.6,58.1-36.4.8-1.4,1.6-2.8,2.3-4.4h0c-17.9,0-36.1-.2-54-.5-6.6-.1-12.4-4.1-14.9-10.2-2.5-6.1-1.2-13,3.4-17.8,13.9-14.5,28.7-30.1,45.1-47.7-8.2-4.7-17.4-7.3-26.4-7.3s-9.3.7-13.6,2.1c-13.6,4.4-25.5,15.4-35.4,25.5-3.1,3.2-7.4,5-11.8,5s-.7,0-1,0c-4.8-.3-9.2-2.6-12.1-6.4-7.6-10-16.1-19.5-25.2-28.1-3.7-3.5-5.6-8.7-5-13.8.6-5.1,3.5-9.7,7.9-12.3,15.2-9.1,29.7-19.5,43.1-31,3-2.6,6.8-4,10.8-4s9.4,2.1,12.5,5.8c5.9,6.9,5.1,17.3-1.8,23.3-9.6,8.2-19.7,16-30.2,23.2.8.9,1.6,1.8,2.4,2.7,11.9-10.3,23.6-17.3,35.5-21.2,7.7-2.5,15.7-3.7,24-3.7,17.4,0,34.7,5.6,49.2,15.7,17-18.5,33.5-36.6,48.9-53.8,2.6-6,8.6-10,15.1-10s1.2,0,1.8.1c4.4.5,8.3,2.6,11.1,6.1,2.8,3.4,4,7.7,3.6,12.1l-12,112.3c14.1-.4,26-.7,37.2-1.2h.7c8.9,0,16.1,7,16.5,15.9.2,4.4-1.4,8.6-4.4,11.9-3,3.2-7.1,5.1-11.5,5.3-13,.5-26.7.9-42,1.3l-15.5,145.6c-.9,8.4-7.9,14.8-16.4,14.8v-.2ZM412.2,131.5c5.1,0,10.1,0,15.2,0h6.2c-.5-6.4-2-12.6-4.3-18.2-5.8,6.2-11.5,12.3-17.1,18.2h0ZM453.1,87.7c6.9,10.8,11.3,23.2,13,36.5l6.1-57.3c-6,6.6-12.3,13.5-19.2,20.8Z"/>
          <path class="cls-9" d="M536,133c-13.7.5-27.5.9-41.3,1.3l12.4-116.4c.8-7.1-4.4-13.4-11.4-14.2-6-.6-11.3,2.9-13.4,8.2-17,19-34.2,37.9-51.6,56.7-20.6-15.6-48.1-21.3-72.5-13.3-14.6,4.7-26.7,13.5-37,22.9-2.5-2.9-5-5.8-7.6-8.5,11.6-7.7,22.8-16.2,33.4-25.3,5.4-4.6,6-12.8,1.4-18.2-4.6-5.4-12.8-6-18.2-1.4-13.6,11.6-28.2,22.2-43.6,31.4-3.5,2.1-5.7,5.6-6.2,9.6-.5,4,1,8,3.9,10.7,9.2,8.8,17.8,18.4,25.5,28.6,2.3,3,5.7,4.8,9.5,5,3.8.2,7.4-1.2,10-3.9,10.1-10.4,22.4-21.8,36.8-26.4,15.3-5,33.1-1.5,46.8,7.9-16,17.1-32,34.1-48.1,50.9-3.5,3.7-4.6,9.1-2.6,13.9,2,4.7,6.5,7.9,11.7,8,17.9.4,35.9.5,53.9.5s3.6,0,5.5,0c-1.3,3.4-2.7,6.7-4.6,9.9-12,20.8-35.3,35.4-60.9,38.2-14.2,1.5-32.6-1.2-41.8-13.4-4.3-5.7-12.3-6.8-18-2.6-5.7,4.3-6.9,12.3-2.6,18,11.6,15.5,31.6,24.2,54.8,24.2s6.9-.2,10.4-.6c33.6-3.6,64.4-23.1,80.5-50.9,4.2-7.2,7.3-14.9,9.3-22.9,1.9,0,3.7,0,5.6,0l-15.6,145.5c-.8,7.1,4.4,13.4,11.4,14.2.5,0,.9,0,1.4,0,6.5,0,12.1-4.9,12.8-11.5l15.9-148.7c15.1-.4,30.1-.8,45.1-1.4,7.1-.3,12.7-6.3,12.4-13.4-.3-7.1-6.3-12.6-13.4-12.4h0ZM403.8,135c8.8-9.3,17.7-18.7,26.4-28.1,4.5,8.5,6.9,18.2,7.2,28.2-11.2,0-22.4,0-33.6,0h0ZM463.3,134.9c-.4-16.8-5.2-33.4-14.5-47.1-.1-.1-.2-.3-.3-.4,9.6-10.3,19.1-20.7,28.5-31.1l-8.4,78.6c-1.8,0-3.5,0-5.3,0h0Z"/>
          <path class="cls-8" d="M360.1,238.7c-24.5,0-45.5-9.3-57.7-25.6-2.6-3.5-3.8-7.9-3.1-12.2.6-4.4,2.9-8.2,6.5-10.9,2.9-2.2,6.3-3.3,9.9-3.3,5.2,0,10.1,2.5,13.2,6.6,8.4,11.2,24.9,12.4,31.7,12.4s4.6-.1,6.8-.4c24.4-2.6,46.7-16.6,58.1-36.4,11.6-20.1,11.1-46.7-1.1-64.7-9.5-14-26.6-23.1-43.5-23.1s-9.4.7-13.7,2.1c-13.6,4.4-25.5,15.4-35.4,25.5-3.1,3.2-7.4,5-11.8,5s-.7,0-1,0c-4.8-.3-9.2-2.6-12.1-6.4-7.6-10-16.1-19.5-25.2-28.1-3.7-3.5-5.6-8.7-5-13.8.6-5.1,3.5-9.7,7.9-12.3,15.2-9.1,29.7-19.5,43.1-31,3-2.6,6.8-4,10.8-4s9.4,2.1,12.5,5.8c5.9,6.9,5.1,17.3-1.8,23.3-9.6,8.2-19.7,16-30.2,23.2.8.9,1.6,1.8,2.4,2.7,11.9-10.3,23.6-17.3,35.5-21.2,7.7-2.5,15.8-3.7,24-3.7,28,0,55.1,14.4,70.8,37.6,19.3,28.6,20.2,68.6,2.3,99.7-16.6,28.8-48.5,49-83.2,52.7-3.6.4-7.2.6-10.8.6h0Z"/>
          <path class="cls-7" d="M360.1,235.1c-23.2,0-43.2-8.7-54.8-24.2-4.3-5.7-3.1-13.8,2.6-18,5.7-4.3,13.8-3.1,18,2.6,9.2,12.2,27.6,14.9,41.8,13.4,25.6-2.7,48.9-17.4,60.9-38.2,12.2-21.2,11.7-49.4-1.2-68.6-13.4-19.8-39.7-29.4-61.3-22.4-14.4,4.7-26.7,16-36.8,26.4-2.6,2.7-6.2,4.1-10,3.9-3.8-.2-7.2-2.1-9.5-5-7.8-10.1-16.3-19.7-25.5-28.6-2.9-2.8-4.3-6.8-3.9-10.7.5-4,2.7-7.5,6.2-9.6,15.4-9.2,30-19.7,43.6-31.4,5.4-4.6,13.5-4,18.2,1.4,4.6,5.4,4,13.5-1.4,18.2-10.6,9.1-21.8,17.5-33.4,25.3,2.6,2.8,5.1,5.7,7.6,8.5,10.3-9.4,22.4-18.1,37-22.9,32.7-10.6,70.8,3,90.7,32.5,18.5,27.5,19.4,66,2.2,95.8-16,27.8-46.9,47.3-80.5,50.9-3.5.4-7,.6-10.4.6h0Z"/>
          <path class="cls-4" d="M427.7,164.5c-17.9,0-36.1-.2-54-.5-6.6-.1-12.4-4.1-14.9-10.2-2.5-6.1-1.2-13,3.4-17.8,40.2-41.8,80.1-84.9,118.8-128.1,3.1-3.5,7.6-5.5,12.3-5.5s8,1.5,11,4.2c6.8,6.1,7.4,16.5,1.3,23.3-30.4,34-61.8,68.2-93.4,101.6,5.2,0,10.4,0,15.6,0,36,0,72.3-.7,108-2.1h.7c8.9,0,16.1,7,16.5,15.9.2,4.4-1.4,8.6-4.4,11.9-3,3.2-7.1,5.1-11.5,5.3-36.2,1.4-73,2.2-109.4,2.2h0Z"/>
          <path class="cls-5" d="M427.7,160.9c-18,0-36-.2-53.9-.5-5.1-.1-9.7-3.2-11.7-8-2-4.7-.9-10.2,2.6-13.9,40.2-41.8,80.2-85,118.9-128.2,4.7-5.3,12.9-5.8,18.2-1,5.3,4.7,5.8,12.9,1,18.2-32.3,36.2-65.6,72.2-99.1,107.5,44,.4,88.3-.3,132.2-2,7.1-.3,13.1,5.3,13.4,12.4.3,7.1-5.3,13.1-12.4,13.4-36.2,1.4-72.8,2.2-109.3,2.2h0Z"/>
          <path class="cls-3" d="M463.2,324c-.6,0-1.2,0-1.8,0-9.1-1-15.6-9.1-14.7-18.2L477.8,14.8c.9-8.4,7.9-14.8,16.4-14.8s1.2,0,1.8.1c4.4.5,8.3,2.6,11.1,6.1,2.8,3.4,4,7.7,3.6,12.1l-31.1,291c-.9,8.4-7.9,14.8-16.4,14.8h0Z"/>
          <path class="cls-2" d="M463.2,320.4c-.5,0-.9,0-1.4,0-7.1-.8-12.2-7.1-11.4-14.2L481.4,15.1c.8-7.1,7.1-12.2,14.2-11.4,7.1.8,12.2,7.1,11.4,14.2l-31.1,291c-.7,6.6-6.3,11.5-12.8,11.5h0Z"/>
        </g>
      </g>
      <rect class="cls-1" x="-484.8" y="-275.5" width="553" height="324"/>
      <path d="M-484.8-98.1l7.7-17.3c6.7,3.9,15.5,6.4,23.3,6.4s9.2-1.4,9.2-3.8c0-8.9-39-1.7-39-28s11-23.8,32.9-23.8,19.3,2,26.6,6.1l-7.2,17.2c-7-3.5-13.5-5.2-19.7-5.2s-9.2,2-9.2,4.4c0,8.5,39,1.4,39,27.4s-11,23.8-32.9,23.8-23.7-2.9-30.8-7.3h0Z"/>
      <path d="M-347.9-136.4c0,16.3-12.5,26.6-32.2,26.6h-10.2v17.3h-23.8v-70.5h34c19.7,0,32.2,10.3,32.2,26.6ZM-371.9-136.4c0-5.1-3.1-8.3-9.7-8.3h-8.7v16.5h8.7c6.6,0,9.7-3.1,9.7-8.3h0Z"/>
      <path d="M-295.6-104.8h-26.8l-4.7,12.3h-24.2l30.9-70.5h23.4l30.9,70.5h-24.6l-4.7-12.3h0ZM-302.1-121.9l-6.9-17.7-6.9,17.7h13.7,0Z"/>
      <path d="M-232.2-110.2h-6.5v17.7h-23.8v-70.5h34c19.7,0,32.2,10.3,32.2,26.6s-4.8,17.8-13.3,22.2l14.8,21.8h-25.4l-12-17.7h0ZM-229.9-144.7h-8.7v16.5h8.7c6.6,0,9.7-3.1,9.7-8.3s-3.1-8.3-9.7-8.3h0Z"/>
      <path d="M-158.5-115.9l-5.3,5.9v17.4h-23.4v-70.5h23.4v25.6l23.2-25.6h25.9l-28.2,31,29.7,39.5h-27.5l-17.6-23.4Z"/>
      <g>
        <path class="cls-6" d="M478.5,716.2c-.6,0-1.2,0-1.8-.1-4.4-.5-8.3-2.6-11.1-6.1-2.8-3.4-4-7.7-3.6-12.1l14.5-135.8c-1.9,5.4-4.3,10.6-7.1,15.4-16.6,28.8-48.5,49-83.2,52.7-3.6.4-7.2.6-10.8.6-24.5,0-45.5-9.3-57.7-25.6-2.6-3.5-3.8-7.9-3.1-12.2.6-4.4,2.9-8.2,6.5-10.9,2.9-2.2,6.3-3.3,9.9-3.3,5.2,0,10.1,2.5,13.2,6.6,8.4,11.2,24.9,12.4,31.7,12.4s4.6-.1,6.8-.4c24.4-2.6,46.7-16.6,58.1-36.4.8-1.4,1.6-2.8,2.3-4.4h0c-17.9,0-36.1-.2-54-.5-6.6-.1-12.4-4.1-14.9-10.2-2.5-6.1-1.2-13,3.4-17.8,13.9-14.5,28.7-30.1,45.1-47.7-8.2-4.7-17.4-7.3-26.4-7.3s-9.3.7-13.6,2.1c-13.6,4.4-25.5,15.4-35.4,25.5-3.1,3.2-7.4,5-11.8,5s-.7,0-1,0c-4.8-.3-9.2-2.6-12.1-6.4-7.6-10-16.1-19.5-25.2-28.1-3.7-3.5-5.6-8.7-5-13.8.6-5.1,3.5-9.7,7.9-12.3,15.2-9.1,29.7-19.5,43.1-31,3-2.6,6.8-4,10.8-4s9.4,2.1,12.5,5.8c5.9,6.9,5.1,17.3-1.8,23.3-9.6,8.2-19.7,16-30.2,23.2.8.9,1.6,1.8,2.4,2.7,11.9-10.3,23.6-17.3,35.5-21.2,7.7-2.5,15.7-3.7,24-3.7,17.4,0,34.7,5.6,49.2,15.7,17-18.5,33.5-36.6,48.9-53.8,2.6-6,8.6-10,15.1-10s1.2,0,1.8.1c4.4.5,8.3,2.6,11.1,6.1,2.8,3.4,4,7.7,3.6,12.1l-12,112.3c14.1-.4,26-.7,37.2-1.2h.7c8.9,0,16.1,7,16.5,15.9.2,4.4-1.4,8.6-4.4,11.9-3,3.2-7.1,5.1-11.5,5.3-13,.5-26.7.9-42,1.3l-15.5,145.6c-.9,8.4-7.9,14.8-16.4,14.8v-.2ZM427.5,523.7c5.1,0,10.1,0,15.2,0h6.2c-.5-6.4-2-12.6-4.3-18.2-5.8,6.2-11.5,12.3-17.1,18.2h0ZM468.4,479.9c6.9,10.8,11.3,23.2,13,36.5l6.1-57.3c-6,6.6-12.3,13.5-19.2,20.8Z"/>
        <path class="cls-12" d="M551.3,525.2c-13.7.5-27.5.9-41.3,1.3l12.4-116.4c.8-7.1-4.4-13.4-11.4-14.2-6-.6-11.3,2.9-13.4,8.2-17,19-34.2,37.9-51.6,56.7-20.6-15.6-48.1-21.3-72.5-13.3-14.6,4.7-26.7,13.5-37,22.9-2.5-2.9-5-5.8-7.6-8.5,11.6-7.7,22.8-16.2,33.4-25.3,5.4-4.6,6-12.8,1.4-18.2-4.6-5.4-12.8-6-18.2-1.4-13.6,11.6-28.2,22.2-43.6,31.4-3.5,2.1-5.7,5.6-6.2,9.6-.5,4,1,8,3.9,10.7,9.2,8.8,17.8,18.4,25.5,28.6,2.3,3,5.7,4.8,9.5,5,3.8.2,7.4-1.2,10-3.9,10.1-10.4,22.4-21.8,36.8-26.4,15.3-5,33.1-1.5,46.8,7.9-16,17.1-32,34.1-48.1,50.9-3.5,3.7-4.6,9.1-2.6,13.9,2,4.7,6.5,7.9,11.7,8,17.9.4,35.9.5,53.9.5s3.6,0,5.5,0c-1.3,3.4-2.7,6.7-4.6,9.9-12,20.8-35.3,35.4-60.9,38.2-14.2,1.5-32.6-1.2-41.8-13.4-4.3-5.7-12.3-6.8-18-2.6-5.7,4.3-6.9,12.3-2.6,18,11.6,15.5,31.6,24.2,54.8,24.2s6.9-.2,10.4-.6c33.6-3.6,64.4-23.1,80.5-50.9,4.2-7.2,7.3-14.9,9.3-22.9,1.9,0,3.7,0,5.6,0l-15.6,145.5c-.8,7.1,4.4,13.4,11.4,14.2.5,0,.9,0,1.4,0,6.5,0,12.1-4.9,12.8-11.5l15.9-148.7c15.1-.4,30.1-.8,45.1-1.4,7.1-.3,12.7-6.3,12.4-13.4-.3-7.1-6.3-12.6-13.4-12.4h0ZM419.1,527.2c8.8-9.3,17.7-18.7,26.4-28.1,4.5,8.5,6.9,18.2,7.2,28.2-11.2,0-22.4,0-33.6,0h0ZM478.6,527.1c-.4-16.8-5.2-33.4-14.5-47.1-.1-.1-.2-.3-.3-.4,9.6-10.3,19.1-20.7,28.5-31.1l-8.4,78.6c-1.8,0-3.5,0-5.3,0h0Z"/>
        <path class="cls-13" d="M375.4,630.9c-24.5,0-45.5-9.3-57.7-25.6-2.6-3.5-3.8-7.9-3.1-12.2.6-4.4,2.9-8.2,6.5-10.9,2.9-2.2,6.3-3.3,9.9-3.3,5.2,0,10.1,2.5,13.2,6.6,8.4,11.2,24.9,12.4,31.7,12.4s4.6-.1,6.8-.4c24.4-2.6,46.7-16.6,58.1-36.4,11.6-20.1,11.1-46.7-1.1-64.7-9.5-14-26.6-23.1-43.5-23.1s-9.4.7-13.7,2.1c-13.6,4.4-25.5,15.4-35.4,25.5-3.1,3.2-7.4,5-11.8,5s-.7,0-1,0c-4.8-.3-9.2-2.6-12.1-6.4-7.6-10-16.1-19.5-25.2-28.1-3.7-3.5-5.6-8.7-5-13.8.6-5.1,3.5-9.7,7.9-12.3,15.2-9.1,29.7-19.5,43.1-31,3-2.6,6.8-4,10.8-4s9.4,2.1,12.5,5.8c5.9,6.9,5.1,17.3-1.8,23.3-9.6,8.2-19.7,16-30.2,23.2.8.9,1.6,1.8,2.4,2.7,11.9-10.3,23.6-17.3,35.5-21.2,7.7-2.5,15.8-3.7,24-3.7,28,0,55.1,14.4,70.8,37.6,19.3,28.6,20.2,68.6,2.3,99.7-16.6,28.8-48.5,49-83.2,52.7-3.6.4-7.2.6-10.8.6h0Z"/>
        <path class="cls-14" d="M375.4,627.3c-23.2,0-43.2-8.7-54.8-24.2-4.3-5.7-3.1-13.8,2.6-18,5.7-4.3,13.8-3.1,18,2.6,9.2,12.2,27.6,14.9,41.8,13.4,25.6-2.7,48.9-17.4,60.9-38.2,12.2-21.2,11.7-49.4-1.2-68.6-13.4-19.8-39.7-29.4-61.3-22.4-14.4,4.7-26.7,16-36.8,26.4-2.6,2.7-6.2,4.1-10,3.9-3.8-.2-7.2-2.1-9.5-5-7.8-10.1-16.3-19.7-25.5-28.6-2.9-2.8-4.3-6.8-3.9-10.7.5-4,2.7-7.5,6.2-9.6,15.4-9.2,30-19.7,43.6-31.4,5.4-4.6,13.5-4,18.2,1.4,4.6,5.4,4,13.5-1.4,18.2-10.6,9.1-21.8,17.5-33.4,25.3,2.6,2.8,5.1,5.7,7.6,8.5,10.3-9.4,22.4-18.1,37-22.9,32.7-10.6,70.8,3,90.7,32.5,18.5,27.5,19.4,66,2.2,95.8-16,27.8-46.9,47.3-80.5,50.9-3.5.4-7,.6-10.4.6h0Z"/>
        <path class="cls-15" d="M443,556.7c-17.9,0-36.1-.2-54-.5-6.6-.1-12.4-4.1-14.9-10.2-2.5-6.1-1.2-13,3.4-17.8,40.2-41.8,80.1-84.9,118.8-128.1,3.1-3.5,7.6-5.5,12.3-5.5s8,1.5,11,4.2c6.8,6.1,7.4,16.5,1.3,23.3-30.4,34-61.8,68.2-93.4,101.6,5.2,0,10.4,0,15.6,0,36,0,72.3-.7,108-2.1h.7c8.9,0,16.1,7,16.5,15.9.2,4.4-1.4,8.6-4.4,11.9-3,3.2-7.1,5.1-11.5,5.3-36.2,1.4-73,2.2-109.4,2.2h0Z"/>
        <path class="cls-16" d="M443,553.1c-18,0-36-.2-53.9-.5-5.1-.1-9.7-3.2-11.7-8-2-4.7-.9-10.2,2.6-13.9,40.2-41.8,80.2-85,118.9-128.2,4.7-5.3,12.9-5.8,18.2-1,5.3,4.7,5.8,12.9,1,18.2-32.3,36.2-65.6,72.2-99.1,107.5,44,.4,88.3-.3,132.2-2,7.1-.3,13.1,5.3,13.4,12.4.3,7.1-5.3,13.1-12.4,13.4-36.2,1.4-72.8,2.2-109.3,2.2h0Z"/>
        <path class="cls-17" d="M478.5,716.2c-.6,0-1.2,0-1.8,0-9.1-1-15.6-9.1-14.7-18.2l31.1-291c.9-8.4,7.9-14.8,16.4-14.8s1.2,0,1.8.1c4.4.5,8.3,2.6,11.1,6.1,2.8,3.4,4,7.7,3.6,12.1l-31.1,291c-.9,8.4-7.9,14.8-16.4,14.8h0Z"/>
        <path class="cls-18" d="M478.5,712.6c-.5,0-.9,0-1.4,0-7.1-.8-12.2-7.1-11.4-14.2l31.1-291c.8-7.1,7.1-12.2,14.2-11.4,7.1.8,12.2,7.1,11.4,14.2l-31.1,291c-.7,6.6-6.3,11.5-12.8,11.5h0Z"/>
      </g>
    </g>
  </g>
</svg>